<?xml version="1.0" encoding="iso-8859-1"?>
<!-- Generator: Adobe Illustrator 26.0.1, SVG Export Plug-In . SVG Version: 6.00 Build 0)  -->
<svg version="1.1" id="Layer_1" xmlns="http://www.w3.org/2000/svg" xmlns:xlink="http://www.w3.org/1999/xlink" x="0px" y="0px"
	 viewBox="0 0 1000 1000" style="enable-background:new 0 0 1000 1000;" xml:space="preserve">
<g id="watermark_1_">
	<g>
		<g id="watermark" style="opacity:0.61;">
			<g>
				<g>
					<g>
						<g>
							<polygon style="fill:#FFFFFF;" points="421.112,924.528 409.007,952.493 402.615,952.493 390.55,924.528 397.541,924.528 
								406.051,944.503 414.68,924.528 							"/>
						</g>
						<g>
							<path style="fill:#FFFFFF;" d="M442.323,943.185h-16.26c0.599,2.677,2.876,4.315,6.153,4.315
								c2.277,0,3.915-0.679,5.393-2.077l3.316,3.595c-1.997,2.278-4.994,3.476-8.868,3.476c-7.431,0-12.265-4.674-12.265-11.067
								c0-6.432,4.914-11.066,11.466-11.066c6.312,0,11.186,4.235,11.186,11.146C442.443,941.987,442.363,942.666,442.323,943.185
								 M425.983,939.55h10.587c-0.44-2.717-2.478-4.475-5.274-4.475C428.46,935.075,426.422,936.793,425.983,939.55"/>
						</g>
						<g>
							<path style="fill:#FFFFFF;" d="M444.997,941.427c0-6.471,4.994-11.066,11.985-11.066c4.514,0,8.07,1.958,9.628,5.473
								l-4.834,2.597c-1.159-2.038-2.877-2.956-4.834-2.956c-3.156,0-5.633,2.198-5.633,5.952c0,3.756,2.477,5.953,5.633,5.953
								c1.958,0,3.675-0.879,4.834-2.956l4.834,2.637c-1.558,3.436-5.114,5.433-9.628,5.433
								C449.991,952.493,444.997,947.899,444.997,941.427"/>
						</g>
						<g>
							<path style="fill:#FFFFFF;" d="M484.386,951.135c-1.279,0.919-3.157,1.358-5.074,1.358c-5.073,0-8.03-2.597-8.03-7.711
								v-8.829h-3.316v-4.794h3.316v-5.233h6.232v5.233h5.353v4.794h-5.353v8.749c0,1.837,0.998,2.836,2.677,2.836
								c0.918,0,1.837-0.279,2.517-0.799L484.386,951.135z"/>
						</g>
					</g>
					<g>
						<path style="fill:#FFFFFF;" d="M527.157,930.68v5.753c-0.519-0.04-0.918-0.08-1.398-0.08c-3.435,0-5.713,1.877-5.713,5.993
							v10.147h-6.232V931h5.953v2.836C521.284,931.759,523.841,930.68,527.157,930.68"/>
					</g>
					<g>
						<path style="fill:#FFFFFF;" d="M528.954,949.257l2.197-4.874c2.357,1.718,5.873,2.916,9.229,2.916
							c3.836,0,5.393-1.278,5.393-2.996c0-5.233-16.26-1.638-16.26-12.025c0-4.754,3.835-8.709,11.785-8.709
							c3.516,0,7.112,0.839,9.708,2.477l-1.998,4.914c-2.597-1.478-5.273-2.197-7.75-2.197c-3.835,0-5.313,1.438-5.313,3.196
							c0,5.154,16.259,1.598,16.259,11.865c0,4.675-3.875,8.67-11.865,8.67C535.905,952.493,531.43,951.175,528.954,949.257"/>
					</g>
					<g>
						<path style="fill:#FFFFFF;" d="M577.131,943.185h-16.26c0.599,2.677,2.876,4.315,6.153,4.315c2.277,0,3.915-0.679,5.393-2.077
							l3.316,3.595c-1.998,2.278-4.994,3.476-8.869,3.476c-7.431,0-12.265-4.674-12.265-11.067c0-6.432,4.914-11.066,11.466-11.066
							c6.312,0,11.187,4.235,11.187,11.146C577.251,941.987,577.171,942.666,577.131,943.185 M560.791,939.55h10.587
							c-0.439-2.717-2.477-4.475-5.273-4.475C563.268,935.075,561.231,936.793,560.791,939.55"/>
					</g>
					<g>
						<path style="fill:#FFFFFF;" d="M602.337,943.185h-16.26c0.599,2.677,2.876,4.315,6.152,4.315c2.277,0,3.915-0.679,5.393-2.077
							l3.316,3.595c-1.998,2.278-4.994,3.476-8.869,3.476c-7.431,0-12.265-4.674-12.265-11.067c0-6.432,4.914-11.066,11.466-11.066
							c6.312,0,11.186,4.235,11.186,11.146C602.457,941.987,602.377,942.666,602.337,943.185 M585.997,939.55h10.587
							c-0.439-2.717-2.477-4.475-5.273-4.475C588.474,935.075,586.437,936.793,585.997,939.55"/>
					</g>
					<g>
						<polygon style="fill:#FFFFFF;" points="615.838,944.064 612.841,947.02 612.841,952.493 606.61,952.493 606.61,922.85 
							612.841,922.85 612.841,939.629 621.95,931 629.381,931 620.432,940.108 630.18,952.493 622.63,952.493 						"/>
					</g>
					<g>
						<path style="fill:#FFFFFF;" d="M514.371,955.416L514.371,955.416l-6.226-6.226c-0.947,1.107-2.075,2.054-3.339,2.796
							c-0.201,0.15-0.406,0.296-0.616,0.433l6.589,6.589c0.992,0.992,2.601,0.992,3.592,0
							C515.363,958.017,515.363,956.408,514.371,955.416"/>
					</g>
					<g>
						<path style="fill:#FFFFFF;" d="M499.965,929.04c0.48-0.377,1.077-0.612,1.735-0.612c0.091,0,0.181,0.005,0.27,0.013
							c-0.466-0.34-1.041-0.542-1.663-0.542c-0.859,0-1.619,0.392-2.137,0.998c-0.111,0-0.218,0.013-0.328,0.016
							c0.086-0.167,0.139-0.354,0.139-0.555c0-0.509-0.311-0.945-0.752-1.13c0.19,0.275,0.301,0.608,0.301,0.968
							c0,0.267-0.066,0.517-0.176,0.742c-6.119,0.437-10.95,5.527-10.95,11.757c0,6.516,5.283,11.799,11.799,11.799
							c6.517,0,11.8-5.283,11.8-11.799C510.004,934.777,505.644,929.892,499.965,929.04 M495.61,932.114
							c0.947,0,1.837,0.244,2.611,0.674c0.813-0.532,1.785-0.842,2.828-0.842c1.547,0,2.934,0.68,3.883,1.756
							c-0.948-0.826-2.186-1.328-3.541-1.328c-0.977,0-1.895,0.261-2.686,0.716c-0.172,0.1-0.34,0.208-0.499,0.326
							c-0.142-0.104-0.29-0.203-0.444-0.292c-0.803-0.476-1.741-0.749-2.743-0.749c-0.653,0-1.279,0.117-1.86,0.331
							C493.895,932.328,494.727,932.114,495.61,932.114 M503.858,941.785c0.25,0.664,0.394,1.38,0.394,2.131
							c0,3.34-2.707,6.047-6.047,6.047c-3.339,0-6.047-2.707-6.047-6.047c0-0.751,0.143-1.467,0.394-2.131
							c-1.35-0.831-2.253-2.317-2.253-4.019c0-2.607,2.114-4.72,4.72-4.72c1.23,0,2.346,0.474,3.186,1.244
							c0.84-0.77,1.956-1.244,3.186-1.244c2.607,0,4.72,2.113,4.72,4.72C506.111,939.467,505.208,940.954,503.858,941.785"/>
					</g>
					<g>
						<path style="fill:#FFFFFF;" d="M503.627,937.351c0,1.082-0.879,1.961-1.961,1.961c-1.082,0-1.961-0.879-1.961-1.961
							s0.879-1.961,1.961-1.961c0.22,0,0.428,0.037,0.625,0.102c-0.065,0.135-0.099,0.287-0.099,0.445
							c0,0.595,0.482,1.076,1.077,1.076c0.11,0,0.217-0.017,0.318-0.048C503.613,937.089,503.627,937.218,503.627,937.351"/>
					</g>
					<g>
						<path style="fill:#FFFFFF;" d="M496.201,937.351c0,0.818-0.665,1.482-1.483,1.482c-0.818,0-1.483-0.664-1.483-1.482
							s0.665-1.483,1.483-1.483c0.166,0,0.324,0.027,0.473,0.077c-0.049,0.102-0.075,0.217-0.075,0.337
							c0,0.449,0.364,0.814,0.814,0.814c0.083,0,0.164-0.013,0.241-0.036C496.191,937.153,496.201,937.251,496.201,937.351"/>
					</g>
					<g>
						<g>
							<g>
								<rect x="484.56" y="939.024" style="fill:#FFFFFF;" width="1.34" height="1.34"/>
							</g>
							<g>
								<rect x="510.51" y="939.024" style="fill:#FFFFFF;" width="1.34" height="1.34"/>
							</g>
							<g>
								<path style="fill:#FFFFFF;" d="M511.332,939.572h-0.304c0-7.07-5.752-12.823-12.823-12.823
									c-7.07,0-12.823,5.753-12.823,12.823h-0.305c0-3.506,1.365-6.803,3.845-9.282c2.479-2.48,5.776-3.845,9.282-3.845
									c3.507,0,6.803,1.365,9.283,3.845C509.966,932.769,511.332,936.065,511.332,939.572"/>
							</g>
						</g>
						<g>
							<rect x="497.534" y="925.927" style="fill:#FFFFFF;" width="1.34" height="1.34"/>
						</g>
						<g>
							<rect x="489.006" y="926.445" style="fill:#FFFFFF;" width="18.397" height="0.304"/>
						</g>
						<g>
							<path style="fill:#FFFFFF;" d="M489.494,926.658c0,0.235-0.191,0.427-0.427,0.427c-0.235,0-0.426-0.191-0.426-0.427
								s0.191-0.427,0.426-0.427C489.303,926.231,489.494,926.422,489.494,926.658"/>
						</g>
						<g>
							<path style="fill:#FFFFFF;" d="M507.829,926.658c0,0.235-0.191,0.427-0.427,0.427c-0.235,0-0.426-0.191-0.426-0.427
								s0.191-0.427,0.426-0.427C507.639,926.231,507.829,926.422,507.829,926.658"/>
						</g>
					</g>
				</g>
				<g>
					<path style="fill:#FFFFFF;" d="M640.109,951.171c0,3.395-5.146,3.395-5.146,0C634.963,947.779,640.109,947.779,640.109,951.171
						z"/>
				</g>
				<g>
					<g>
						<g>
							<path style="fill:#FFFFFF;" d="M307.849,936.236l3.859,13.253l4.038-13.253h4.823l-6.145,17.721h-5.073l-1.822-5.216
								l-1.572-5.896l-1.571,5.896l-1.822,5.216h-5.073l-6.18-17.721h4.858l4.038,13.253l3.822-13.253H307.849z"/>
						</g>
						<g>
							<path style="fill:#FFFFFF;" d="M340.449,936.236l3.859,13.253l4.038-13.253h4.823l-6.145,17.721h-5.073l-1.822-5.216
								l-1.571-5.896l-1.572,5.896l-1.822,5.216h-5.073l-6.18-17.721h4.858l4.038,13.253l3.822-13.253H340.449z"/>
						</g>
						<g>
							<path style="fill:#FFFFFF;" d="M373.048,936.236l3.859,13.253l4.038-13.253h4.823l-6.145,17.721h-5.073l-1.822-5.216
								l-1.572-5.896l-1.571,5.896l-1.822,5.216h-5.073l-6.18-17.721h4.858l4.038,13.253l3.822-13.253H373.048z"/>
						</g>
					</g>
					<g>
						<path style="fill:#FFFFFF;" d="M393.123,951.412c0,3.395-5.146,3.395-5.146,0C387.977,948.02,393.123,948.02,393.123,951.412z
							"/>
					</g>
					<g>
						<path style="fill:#FFFFFF;" d="M658.296,951.171c-2.036,2.001-4.177,2.787-6.787,2.787c-5.108,0-9.361-3.072-9.361-9.323
							c0-6.251,4.253-9.326,9.361-9.326c2.502,0,4.43,0.716,6.359,2.609l-2.752,2.894c-1.036-0.931-2.321-1.393-3.534-1.393
							c-2.929,0-5.073,2.144-5.073,5.216c0,3.357,2.286,5.143,5,5.143c1.393,0,2.787-0.393,3.857-1.463L658.296,951.171z"/>
					</g>
					<g>
						<path style="fill:#FFFFFF;" d="M678.097,944.777c0,5.073-3.465,9.181-9.181,9.181c-5.716,0-9.146-4.107-9.146-9.181
							c0-5.038,3.502-9.181,9.111-9.181S678.097,939.739,678.097,944.777z M664.128,944.777c0,2.679,1.609,5.181,4.788,5.181
							c3.179,0,4.788-2.502,4.788-5.181c0-2.644-1.859-5.216-4.788-5.216C665.772,939.561,664.128,942.133,664.128,944.777z"/>
					</g>
					<g>
						<path style="fill:#FFFFFF;" d="M692.828,953.958v-9.431c0-2.324-1.216-4.43-3.61-4.43c-2.356,0-3.75,2.106-3.75,4.43v9.431
							h-4.36v-17.649h4.038l0.323,2.144c0.928-1.786,2.964-2.429,4.643-2.429c2.109,0,4.218,0.858,5.216,3.287
							c1.574-2.502,3.61-3.217,5.896-3.217c5,0,7.467,3.075,7.467,8.36v9.504h-4.361v-9.504c0-2.321-0.963-4.288-3.322-4.288
							c-2.356,0-3.822,2.036-3.822,4.36v9.431H692.828z"/>
					</g>
				</g>
			</g>
		</g>
		<g style="opacity:0.61;">
			<g>
				<g>
					<path style="fill:#FFFFFF;" d="M708.973,859.493c-0.013-2.665-2.087-4.618-4.766-4.659c-2.011-0.031-1.81,0.261-1.815-1.887
						c-0.006-2.389-0.015-4.778,0.006-7.166c0.007-0.824-0.243-1.505-0.787-2.125c-5.098-5.81-10.184-11.63-15.281-17.441
						c-0.262-0.299-0.599-0.532-0.901-0.796c-13.528,0-27.055,0-40.583,0c-1.729,0.639-2.482,1.889-2.478,3.72
						c0.021,8.159,0.009,16.318,0.008,24.478c0,1.21-0.007,1.281-1.197,1.201c-3.258-0.221-5.477,2.147-5.436,5.426
						c0.096,7.568,0.028,15.137,0.031,22.706c0.001,3.44,1.887,5.32,5.333,5.331c1.267,0.004,1.268,0.004,1.268,1.306
						c0.001,4.831-0.002,9.662,0.002,14.493c0.002,2.595,1.262,3.855,3.85,3.855c17.446,0.001,34.891,0.001,52.337,0
						c2.543,0,3.822-1.268,3.824-3.799c0.005-4.912,0.001-9.823,0.003-14.735c0-1.115,0.005-1.112,1.131-1.121
						c0.589-0.005,1.177,0.017,1.761-0.127c2.169-0.535,3.68-2.273,3.689-4.503C709.007,875.597,709.011,867.545,708.973,859.493z
						 M647.034,828.716c11.619-0.001,23.237-0.001,34.856,0c1.193,0,1.206,0.015,1.207,1.222c0.001,4.884-0.002,9.767,0.002,14.651
						c0.001,1.765,0.543,2.305,2.307,2.306c4.159,0.003,8.318,0,12.477,0.003c0.997,0.001,1.044,0.046,1.046,1.052
						c0.006,1.932,0.005,3.864,0,5.796c-0.003,1.038-0.051,1.085-1.098,1.085c-8.479,0.002-16.958,0.001-25.438,0.001
						c-8.452,0-16.905,0-25.357,0c-1.198,0-1.202-0.003-1.202-1.221c-0.001-7.889-0.001-15.778,0-23.667
						C645.835,828.724,645.844,828.716,647.034,828.716z M697.728,903.645c-8.454,0.001-16.908,0.001-25.362,0.001
						c-8.427,0-16.854,0.001-25.281,0c-1.245,0-1.249-0.003-1.249-1.262c-0.001-4.348-0.003-8.696,0.001-13.043
						c0.001-1.01,0.051-1.059,1.041-1.059c16.989-0.002,33.977-0.002,50.966,0c1.041,0,1.086,0.044,1.087,1.094
						c0.003,4.348,0.003,8.696,0.001,13.043C698.931,903.634,698.92,903.645,697.728,903.645z"/>
				</g>
				<g>
					<g>
						<rect x="668.546" y="828.478" style="fill:#FFFFFF;" width="3.825" height="2.295"/>
					</g>
					<g>
						<rect x="664.722" y="830.773" style="fill:#FFFFFF;" width="3.825" height="2.295"/>
					</g>
					<g>
						<rect x="668.546" y="833.068" style="fill:#FFFFFF;" width="3.825" height="2.295"/>
					</g>
					<g>
						<rect x="664.722" y="835.363" style="fill:#FFFFFF;" width="3.825" height="2.295"/>
					</g>
					<g>
						<rect x="668.546" y="837.658" style="fill:#FFFFFF;" width="3.825" height="2.295"/>
					</g>
					<g>
						<rect x="664.722" y="839.953" style="fill:#FFFFFF;" width="3.825" height="2.295"/>
					</g>
					<g>
						<rect x="668.546" y="842.247" style="fill:#FFFFFF;" width="3.825" height="2.295"/>
					</g>
					<g>
						<rect x="664.722" y="844.542" style="fill:#FFFFFF;" width="3.825" height="2.295"/>
					</g>
					<g>
						<rect x="668.546" y="846.837" style="fill:#FFFFFF;" width="3.825" height="2.295"/>
					</g>
					<g>
						<rect x="664.722" y="849.132" style="fill:#FFFFFF;" width="3.825" height="2.295"/>
					</g>
					<g>
						<rect x="668.546" y="851.427" style="fill:#FFFFFF;" width="3.825" height="2.295"/>
					</g>
					<g>
						<rect x="664.722" y="853.722" style="fill:#FFFFFF;" width="3.825" height="2.295"/>
					</g>
				</g>
			</g>
			<g>
				<path style="fill:#FFFFFF;" d="M364.231,859.493c-0.013-2.665-2.087-4.618-4.766-4.659c-2.011-0.031-1.81,0.261-1.815-1.887
					c-0.006-2.389-0.015-4.778,0.006-7.166c0.007-0.824-0.243-1.505-0.787-2.125c-5.098-5.81-10.184-11.63-15.281-17.441
					c-0.262-0.299-0.599-0.532-0.901-0.796c-13.528,0-27.055,0-40.583,0c-1.729,0.639-2.482,1.889-2.478,3.72
					c0.021,8.159,0.009,16.318,0.008,24.478c0,1.21-0.007,1.281-1.197,1.201c-3.258-0.221-5.477,2.147-5.436,5.426
					c0.096,7.568,0.028,15.137,0.031,22.706c0.001,3.44,1.887,5.32,5.333,5.331c1.267,0.004,1.268,0.004,1.268,1.306
					c0.001,4.831-0.002,9.662,0.002,14.493c0.002,2.595,1.262,3.855,3.85,3.855c17.446,0.001,34.891,0.001,52.337,0
					c2.543,0,3.822-1.268,3.824-3.799c0.005-4.912,0.001-9.823,0.003-14.735c0-1.115,0.004-1.112,1.131-1.121
					c0.589-0.005,1.177,0.017,1.761-0.127c2.169-0.535,3.68-2.273,3.689-4.503C364.264,875.597,364.269,867.545,364.231,859.493z
					 M302.292,828.716c11.619-0.001,23.237-0.001,34.856,0c1.192,0,1.206,0.015,1.207,1.222c0.001,4.884-0.001,9.767,0.002,14.651
					c0.001,1.765,0.543,2.305,2.307,2.306c4.159,0.003,8.318,0,12.477,0.003c0.997,0.001,1.044,0.046,1.046,1.052
					c0.006,1.932,0.005,3.864,0,5.796c-0.003,1.038-0.051,1.085-1.098,1.085c-8.479,0.002-16.958,0.001-25.438,0.001
					c-8.452,0-16.905,0-25.357,0c-1.198,0-1.202-0.003-1.202-1.221c-0.001-7.889-0.001-15.778,0-23.667
					C301.093,828.724,301.102,828.716,302.292,828.716z M352.985,903.645c-8.454,0.001-16.908,0.001-25.362,0.001
					c-8.427,0-16.854,0.001-25.281,0c-1.245,0-1.249-0.003-1.249-1.262c-0.001-4.348-0.003-8.696,0.001-13.043
					c0.001-1.01,0.051-1.059,1.041-1.059c16.989-0.002,33.977-0.002,50.966,0c1.041,0,1.086,0.044,1.087,1.094
					c0.003,4.348,0.003,8.696,0.001,13.043C354.188,903.634,354.177,903.645,352.985,903.645z"/>
			</g>
			<g>
				<path style="fill:#FFFFFF;" d="M303.581,879.891v-17.193h6.051c0.816,0,1.581,0.132,2.293,0.396
					c0.712,0.264,1.333,0.636,1.861,1.117c0.527,0.48,0.944,1.053,1.248,1.717c0.304,0.665,0.456,1.397,0.456,2.198
					c0,0.816-0.152,1.557-0.456,2.221s-0.721,1.236-1.248,1.717c-0.529,0.48-1.149,0.852-1.861,1.117
					c-0.713,0.264-1.477,0.396-2.293,0.396h-2.809v6.315H303.581z M309.68,870.503c0.848,0,1.489-0.241,1.921-0.721
					c0.432-0.48,0.648-1.032,0.648-1.656c0-0.304-0.052-0.601-0.156-0.889c-0.105-0.288-0.264-0.54-0.48-0.756
					c-0.216-0.217-0.484-0.388-0.805-0.516c-0.32-0.129-0.696-0.193-1.128-0.193h-2.857v4.731H309.68z"/>
				<path style="fill:#FFFFFF;" d="M317.796,862.699h3.77l6.916,11.526h0.191l-0.191-3.314v-8.212h3.217v17.193h-3.409l-7.3-12.174
					h-0.191l0.191,3.314v8.86h-3.193V862.699z"/>
				<path style="fill:#FFFFFF;" d="M343.08,870.454h8.429c0.048,0.193,0.087,0.425,0.12,0.697c0.031,0.272,0.048,0.544,0.048,0.816
					c0,1.104-0.167,2.145-0.504,3.121c-0.336,0.977-0.865,1.849-1.585,2.618c-0.768,0.817-1.69,1.449-2.761,1.897
					c-1.073,0.448-2.298,0.672-3.674,0.672c-1.249,0-2.426-0.224-3.53-0.672c-1.104-0.447-2.065-1.072-2.881-1.873
					c-0.816-0.8-1.465-1.749-1.945-2.845c-0.48-1.097-0.72-2.293-0.72-3.59c0-1.296,0.24-2.493,0.72-3.589s1.129-2.045,1.945-2.845
					c0.816-0.8,1.777-1.425,2.881-1.873c1.104-0.448,2.281-0.672,3.53-0.672c1.392,0,2.637,0.24,3.734,0.72
					c1.097,0.48,2.036,1.144,2.821,1.993l-2.232,2.185c-0.562-0.592-1.185-1.044-1.874-1.357s-1.513-0.468-2.473-0.468
					c-0.786,0-1.53,0.14-2.234,0.421c-0.705,0.28-1.321,0.676-1.85,1.188c-0.527,0.512-0.949,1.133-1.259,1.861
					c-0.312,0.728-0.469,1.541-0.469,2.437c0,0.897,0.157,1.709,0.469,2.438c0.311,0.728,0.735,1.349,1.271,1.861
					c0.536,0.512,1.156,0.909,1.862,1.188c0.704,0.281,1.457,0.421,2.258,0.421c0.911,0,1.684-0.132,2.317-0.396
					c0.632-0.264,1.171-0.604,1.62-1.021c0.321-0.288,0.598-0.652,0.829-1.092s0.412-0.932,0.541-1.477h-5.404V870.454z"/>
			</g>
			<g>
				<path style="fill:#FFFFFF;" d="M443.437,859.493c-0.013-2.665-2.087-4.618-4.766-4.659c-2.011-0.031-1.81,0.261-1.815-1.887
					c-0.006-2.389-0.015-4.778,0.006-7.166c0.007-0.824-0.243-1.505-0.787-2.125c-5.098-5.81-10.184-11.63-15.281-17.441
					c-0.262-0.299-0.599-0.532-0.901-0.796c-13.528,0-27.055,0-40.583,0c-1.729,0.639-2.482,1.889-2.478,3.72
					c0.021,8.159,0.009,16.318,0.008,24.478c0,1.21-0.007,1.281-1.197,1.201c-3.258-0.221-5.477,2.147-5.436,5.426
					c0.096,7.568,0.028,15.137,0.031,22.706c0.001,3.44,1.887,5.32,5.333,5.331c1.267,0.004,1.268,0.004,1.268,1.306
					c0.001,4.831-0.002,9.662,0.002,14.493c0.002,2.595,1.262,3.855,3.85,3.855c17.446,0.001,34.891,0.001,52.337,0
					c2.543,0,3.822-1.268,3.824-3.799c0.005-4.912,0.001-9.823,0.003-14.735c0-1.115,0.004-1.112,1.131-1.121
					c0.589-0.005,1.177,0.017,1.761-0.127c2.169-0.535,3.68-2.273,3.689-4.503C443.47,875.597,443.475,867.545,443.437,859.493z
					 M381.498,828.716c11.619-0.001,23.237-0.001,34.856,0c1.192,0,1.206,0.015,1.207,1.222c0.001,4.884-0.001,9.767,0.002,14.651
					c0.001,1.765,0.543,2.305,2.307,2.306c4.159,0.003,8.318,0,12.477,0.003c0.997,0.001,1.044,0.046,1.046,1.052
					c0.006,1.932,0.005,3.864,0,5.796c-0.003,1.038-0.051,1.085-1.098,1.085c-8.479,0.002-16.958,0.001-25.438,0.001
					c-8.452,0-16.905,0-25.357,0c-1.198,0-1.202-0.003-1.202-1.221c-0.001-7.889-0.001-15.778,0-23.667
					C380.299,828.724,380.308,828.716,381.498,828.716z M432.192,903.645c-8.454,0.001-16.908,0.001-25.362,0.001
					c-8.427,0-16.854,0.001-25.281,0c-1.245,0-1.249-0.003-1.249-1.262c-0.001-4.348-0.002-8.696,0.001-13.043
					c0.001-1.01,0.051-1.059,1.041-1.059c16.989-0.002,33.977-0.002,50.966,0c1.041,0,1.086,0.044,1.087,1.094
					c0.003,4.348,0.003,8.696,0.001,13.043C433.394,903.634,433.384,903.645,432.192,903.645z"/>
			</g>
			<g>
				<path style="fill:#FFFFFF;" d="M402.272,862.699h3.698l6.46,17.193h-3.578l-1.416-4.106h-6.628l-1.417,4.106h-3.578
					L402.272,862.699z M406.379,872.808l-1.537-4.298l-0.625-2.089h-0.192l-0.625,2.089l-1.537,4.298H406.379z"/>
				<path style="fill:#FFFFFF;" d="M415.815,866.541c-0.273,0-0.533-0.052-0.781-0.156c-0.248-0.104-0.465-0.248-0.648-0.432
					c-0.184-0.184-0.328-0.396-0.432-0.636c-0.105-0.241-0.156-0.504-0.156-0.793s0.052-0.552,0.156-0.793
					c0.104-0.24,0.248-0.452,0.432-0.636c0.184-0.184,0.4-0.328,0.648-0.432c0.248-0.104,0.508-0.156,0.781-0.156
					c0.56,0,1.041,0.196,1.441,0.588c0.4,0.393,0.601,0.869,0.601,1.429c0,0.56-0.201,1.037-0.601,1.428
					C416.856,866.345,416.375,866.541,415.815,866.541z M414.255,879.891v-11.766h3.145v11.766H414.255z"/>
			</g>
			<g>
				<path style="fill:#FFFFFF;" d="M524.043,859.493c-0.013-2.665-2.087-4.618-4.766-4.659c-2.011-0.031-1.81,0.261-1.815-1.887
					c-0.006-2.389-0.015-4.778,0.006-7.166c0.007-0.824-0.243-1.505-0.787-2.125c-5.098-5.81-10.184-11.63-15.281-17.441
					c-0.262-0.299-0.599-0.532-0.901-0.796c-13.528,0-27.055,0-40.583,0c-1.729,0.639-2.482,1.889-2.478,3.72
					c0.021,8.159,0.009,16.318,0.008,24.478c0,1.21-0.007,1.281-1.197,1.201c-3.258-0.221-5.477,2.147-5.436,5.426
					c0.096,7.568,0.028,15.137,0.031,22.706c0.001,3.44,1.887,5.32,5.333,5.331c1.267,0.004,1.268,0.004,1.268,1.306
					c0.001,4.831-0.002,9.662,0.002,14.493c0.002,2.595,1.262,3.855,3.85,3.855c17.446,0.001,34.891,0.001,52.337,0
					c2.543,0,3.822-1.268,3.824-3.799c0.005-4.912,0.001-9.823,0.003-14.735c0-1.115,0.004-1.112,1.131-1.121
					c0.589-0.005,1.177,0.017,1.761-0.127c2.169-0.535,3.68-2.273,3.689-4.503C524.076,875.597,524.081,867.545,524.043,859.493z
					 M462.104,828.716c11.619-0.001,23.237-0.001,34.856,0c1.192,0,1.206,0.015,1.207,1.222c0.001,4.884-0.001,9.767,0.002,14.651
					c0.001,1.765,0.543,2.305,2.307,2.306c4.159,0.003,8.318,0,12.477,0.003c0.997,0.001,1.044,0.046,1.046,1.052
					c0.006,1.932,0.005,3.864,0,5.796c-0.003,1.038-0.051,1.085-1.098,1.085c-8.479,0.002-16.958,0.001-25.438,0.001
					c-8.452,0-16.905,0-25.357,0c-1.198,0-1.202-0.003-1.202-1.221c-0.001-7.889-0.001-15.778,0-23.667
					C460.905,828.724,460.914,828.716,462.104,828.716z M512.798,903.645c-8.454,0.001-16.908,0.001-25.362,0.001
					c-8.427,0-16.854,0.001-25.281,0c-1.245,0-1.249-0.003-1.249-1.262c-0.001-4.348-0.002-8.696,0.001-13.043
					c0.001-1.01,0.051-1.059,1.041-1.059c16.989-0.002,33.977-0.002,50.966,0c1.041,0,1.086,0.044,1.087,1.094
					c0.003,4.348,0.003,8.696,0.001,13.043C514,903.634,513.989,903.645,512.798,903.645z"/>
			</g>
			<g>
				<path style="fill:#FFFFFF;" d="M470.308,880.275c-0.737,0-1.441-0.104-2.113-0.312c-0.672-0.208-1.289-0.52-1.849-0.936
					c-0.56-0.416-1.048-0.925-1.464-1.525c-0.417-0.601-0.745-1.301-0.985-2.101l3.049-1.2c0.224,0.864,0.616,1.581,1.177,2.149
					s1.297,0.852,2.209,0.852c0.336,0,0.66-0.044,0.973-0.132c0.312-0.087,0.592-0.216,0.84-0.384
					c0.248-0.168,0.444-0.38,0.589-0.636c0.144-0.256,0.216-0.552,0.216-0.888c0-0.32-0.056-0.608-0.168-0.865
					c-0.112-0.255-0.3-0.495-0.564-0.72c-0.264-0.224-0.609-0.44-1.033-0.648c-0.424-0.208-0.948-0.424-1.572-0.648l-1.056-0.384
					c-0.465-0.16-0.933-0.376-1.405-0.648c-0.472-0.272-0.9-0.6-1.284-0.985c-0.385-0.384-0.701-0.836-0.949-1.357
					c-0.249-0.52-0.372-1.108-0.372-1.765c0-0.672,0.132-1.301,0.396-1.885c0.264-0.584,0.64-1.096,1.129-1.537
					c0.488-0.44,1.072-0.784,1.753-1.032c0.681-0.248,1.437-0.372,2.269-0.372c0.864,0,1.612,0.116,2.245,0.348
					c0.633,0.232,1.168,0.528,1.609,0.888c0.44,0.36,0.796,0.757,1.068,1.188c0.272,0.433,0.472,0.84,0.601,1.225l-2.857,1.2
					c-0.161-0.48-0.453-0.913-0.876-1.297c-0.425-0.384-1.005-0.576-1.741-0.576c-0.704,0-1.289,0.164-1.753,0.492
					c-0.465,0.329-0.697,0.757-0.697,1.285c0,0.512,0.224,0.949,0.672,1.309c0.448,0.36,1.161,0.708,2.137,1.044l1.081,0.36
					c0.688,0.241,1.316,0.517,1.885,0.828c0.568,0.312,1.056,0.684,1.465,1.117c0.408,0.433,0.72,0.925,0.936,1.477
					c0.217,0.552,0.324,1.189,0.324,1.909c0,0.897-0.18,1.669-0.54,2.317c-0.36,0.648-0.82,1.181-1.38,1.597
					c-0.561,0.416-1.193,0.728-1.897,0.936C471.668,880.172,470.98,880.275,470.308,880.275z"/>
				<path style="fill:#FFFFFF;" d="M477.175,862.699h3.506l3.554,10.349l0.625,2.209h0.192l0.672-2.209l3.698-10.349h3.506
					l-6.268,17.193h-3.409L477.175,862.699z"/>
				<path style="fill:#FFFFFF;" d="M502.388,870.454h8.428c0.048,0.193,0.088,0.425,0.12,0.697c0.033,0.272,0.049,0.544,0.049,0.816
					c0,1.104-0.169,2.145-0.505,3.121c-0.336,0.977-0.864,1.849-1.585,2.618c-0.768,0.817-1.688,1.449-2.761,1.897
					c-1.073,0.448-2.298,0.672-3.674,0.672c-1.249,0-2.425-0.224-3.529-0.672c-1.105-0.447-2.066-1.072-2.882-1.873
					c-0.816-0.8-1.465-1.749-1.945-2.845c-0.48-1.097-0.72-2.293-0.72-3.59c0-1.296,0.241-2.493,0.72-3.589
					c0.48-1.097,1.129-2.045,1.945-2.845c0.816-0.8,1.777-1.425,2.882-1.873c1.104-0.448,2.28-0.672,3.529-0.672
					c1.392,0,2.637,0.24,3.734,0.72c1.097,0.48,2.038,1.144,2.822,1.993l-2.234,2.185c-0.56-0.592-1.185-1.044-1.874-1.357
					c-0.687-0.312-1.512-0.468-2.473-0.468c-0.784,0-1.528,0.14-2.234,0.421c-0.704,0.28-1.321,0.676-1.848,1.188
					c-0.528,0.512-0.949,1.133-1.261,1.861c-0.312,0.728-0.468,1.541-0.468,2.437c0,0.897,0.156,1.709,0.468,2.438
					c0.312,0.728,0.737,1.349,1.273,1.861c0.536,0.512,1.156,0.909,1.86,1.188c0.705,0.281,1.457,0.421,2.258,0.421
					c0.913,0,1.685-0.132,2.317-0.396c0.632-0.264,1.173-0.604,1.621-1.021c0.32-0.288,0.596-0.652,0.828-1.092
					c0.233-0.44,0.412-0.932,0.541-1.477h-5.402V870.454z"/>
			</g>
			<g>
				<path style="fill:#FFFFFF;" d="M602.976,859.493c-0.013-2.665-2.087-4.618-4.766-4.659c-2.011-0.031-1.81,0.261-1.815-1.887
					c-0.006-2.389-0.015-4.778,0.006-7.166c0.007-0.824-0.243-1.505-0.787-2.125c-5.098-5.81-10.184-11.63-15.281-17.441
					c-0.262-0.299-0.599-0.532-0.901-0.796c-13.528,0-27.055,0-40.583,0c-1.729,0.639-2.482,1.889-2.478,3.72
					c0.021,8.159,0.009,16.318,0.008,24.478c0,1.21-0.007,1.281-1.197,1.201c-3.258-0.221-5.477,2.147-5.436,5.426
					c0.096,7.568,0.028,15.137,0.031,22.706c0.001,3.44,1.887,5.32,5.333,5.331c1.267,0.004,1.268,0.004,1.268,1.306
					c0.001,4.831-0.002,9.662,0.002,14.493c0.002,2.595,1.262,3.855,3.85,3.855c17.446,0.001,34.891,0.001,52.337,0
					c2.543,0,3.822-1.268,3.824-3.799c0.005-4.912,0.001-9.823,0.003-14.735c0-1.115,0.005-1.112,1.131-1.121
					c0.589-0.005,1.178,0.017,1.761-0.127c2.169-0.535,3.68-2.273,3.689-4.503C603.01,875.597,603.015,867.545,602.976,859.493z
					 M541.037,828.716c11.619-0.001,23.237-0.001,34.856,0c1.193,0,1.206,0.015,1.207,1.222c0.001,4.884-0.002,9.767,0.002,14.651
					c0.001,1.765,0.543,2.305,2.307,2.306c4.159,0.003,8.318,0,12.477,0.003c0.997,0.001,1.044,0.046,1.046,1.052
					c0.006,1.932,0.005,3.864,0,5.796c-0.003,1.038-0.051,1.085-1.098,1.085c-8.479,0.002-16.958,0.001-25.438,0.001
					c-8.452,0-16.905,0-25.357,0c-1.198,0-1.202-0.003-1.202-1.221c-0.001-7.889-0.001-15.778,0-23.667
					C539.838,828.724,539.847,828.716,541.037,828.716z M591.731,903.645c-8.454,0.001-16.908,0.001-25.362,0.001
					c-8.427,0-16.854,0.001-25.281,0c-1.245,0-1.249-0.003-1.249-1.262c-0.001-4.348-0.003-8.696,0.001-13.043
					c0.001-1.01,0.051-1.059,1.041-1.059c16.989-0.002,33.977-0.002,50.966,0c1.041,0,1.086,0.044,1.087,1.094
					c0.003,4.348,0.003,8.696,0.001,13.043C592.934,903.634,592.923,903.645,591.731,903.645z"/>
			</g>
			<g>
				<path style="fill:#FFFFFF;" d="M549.998,865.772v3.986h6.891v3.074h-6.891v3.986h7.659v3.073h-10.901v-17.193h10.901v3.073
					H549.998z"/>
				<path style="fill:#FFFFFF;" d="M560.635,879.891v-17.193h6.051c0.816,0,1.581,0.132,2.293,0.396
					c0.712,0.264,1.333,0.636,1.861,1.117c0.528,0.48,0.944,1.053,1.249,1.717c0.304,0.665,0.456,1.397,0.456,2.198
					c0,0.816-0.152,1.557-0.456,2.221c-0.305,0.664-0.721,1.236-1.249,1.717c-0.528,0.48-1.149,0.852-1.861,1.117
					c-0.713,0.264-1.477,0.396-2.293,0.396h-2.809v6.315H560.635z M566.735,870.503c0.848,0,1.489-0.241,1.921-0.721
					c0.432-0.48,0.648-1.032,0.648-1.656c0-0.304-0.052-0.601-0.156-0.889c-0.105-0.288-0.264-0.54-0.48-0.756
					c-0.216-0.217-0.484-0.388-0.805-0.516c-0.32-0.129-0.696-0.193-1.128-0.193h-2.857v4.731H566.735z"/>
				<path style="fill:#FFFFFF;" d="M580.109,880.275c-0.737,0-1.441-0.104-2.113-0.312c-0.672-0.208-1.289-0.52-1.849-0.936
					c-0.56-0.416-1.049-0.925-1.465-1.525c-0.416-0.601-0.744-1.301-0.985-2.101l3.049-1.2c0.224,0.864,0.616,1.581,1.177,2.149
					c0.56,0.568,1.296,0.852,2.209,0.852c0.336,0,0.66-0.044,0.973-0.132c0.312-0.087,0.592-0.216,0.84-0.384
					c0.248-0.168,0.444-0.38,0.588-0.636c0.144-0.256,0.217-0.552,0.217-0.888c0-0.32-0.057-0.608-0.168-0.865
					c-0.112-0.255-0.3-0.495-0.565-0.72c-0.264-0.224-0.608-0.44-1.032-0.648c-0.424-0.208-0.949-0.424-1.573-0.648l-1.056-0.384
					c-0.465-0.16-0.932-0.376-1.404-0.648c-0.473-0.272-0.901-0.6-1.285-0.985c-0.384-0.384-0.701-0.836-0.949-1.357
					c-0.248-0.52-0.372-1.108-0.372-1.765c0-0.672,0.132-1.301,0.396-1.885c0.264-0.584,0.64-1.096,1.129-1.537
					c0.489-0.44,1.073-0.784,1.753-1.032c0.68-0.248,1.437-0.372,2.269-0.372c0.865,0,1.613,0.116,2.246,0.348
					c0.632,0.232,1.168,0.528,1.609,0.888c0.44,0.36,0.796,0.757,1.068,1.188c0.272,0.433,0.472,0.84,0.601,1.225l-2.857,1.2
					c-0.161-0.48-0.453-0.913-0.877-1.297s-1.005-0.576-1.741-0.576c-0.705,0-1.289,0.164-1.753,0.492
					c-0.465,0.329-0.696,0.757-0.696,1.285c0,0.512,0.224,0.949,0.672,1.309c0.448,0.36,1.16,0.708,2.137,1.044l1.08,0.36
					c0.689,0.241,1.317,0.517,1.885,0.828c0.568,0.312,1.056,0.684,1.465,1.117c0.408,0.433,0.72,0.925,0.936,1.477
					c0.216,0.552,0.324,1.189,0.324,1.909c0,0.897-0.18,1.669-0.54,2.317c-0.36,0.648-0.821,1.181-1.38,1.597
					c-0.561,0.416-1.193,0.728-1.897,0.936C581.47,880.172,580.782,880.275,580.109,880.275z"/>
			</g>
			<g>
				<path style="fill:#FFFFFF;" d="M655.431,876.625l8.716-10.854h-8.332v-3.073h12.103v3.266l-8.621,10.854h8.716v3.073h-12.582
					V876.625z"/>
				<path style="fill:#FFFFFF;" d="M670.702,862.699h3.242v17.193h-3.242V862.699z"/>
				<path style="fill:#FFFFFF;" d="M677.402,879.891v-17.193h6.051c0.817,0,1.581,0.132,2.293,0.396
					c0.712,0.264,1.333,0.636,1.861,1.117s0.944,1.053,1.249,1.717c0.304,0.665,0.456,1.397,0.456,2.198
					c0,0.816-0.152,1.557-0.456,2.221c-0.305,0.664-0.721,1.236-1.249,1.717s-1.149,0.852-1.861,1.117
					c-0.713,0.264-1.477,0.396-2.293,0.396h-2.809v6.315H677.402z M683.501,870.503c0.848,0,1.489-0.241,1.921-0.721
					c0.433-0.48,0.648-1.032,0.648-1.656c0-0.304-0.052-0.601-0.156-0.889c-0.105-0.288-0.264-0.54-0.48-0.756
					c-0.216-0.217-0.484-0.388-0.805-0.516c-0.32-0.129-0.696-0.193-1.128-0.193h-2.857v4.731H683.501z"/>
			</g>
		</g>
		<g style="opacity:0.61;">
			<path style="fill:#FFFFFF;" d="M609.144,863.785h19.739v4.881h-19.739V863.785z M609.144,872.201h19.739v4.884h-19.739V872.201z"
				/>
		</g>
	</g>
	<g style="opacity:0.61;">
		<path style="fill:#FFFFFF;" d="M297,963.076h3.498c2.75,0,4.603,1.768,4.603,4.297s-1.854,4.296-4.603,4.296H297V963.076z
			 M300.449,970.883c2.283,0,3.756-1.448,3.756-3.51s-1.473-3.511-3.756-3.511h-2.541v7.021H300.449z"/>
		<path style="fill:#FFFFFF;" d="M315.251,967.373c0-2.504,1.915-4.37,4.517-4.37c2.577,0,4.505,1.853,4.505,4.37
			c0,2.516-1.927,4.369-4.505,4.369C317.166,971.742,315.251,969.877,315.251,967.373z M323.365,967.373
			c0-2.05-1.534-3.56-3.596-3.56c-2.075,0-3.621,1.51-3.621,3.56c0,2.049,1.546,3.559,3.621,3.559
			C321.831,970.932,323.365,969.422,323.365,967.373z"/>
		<path style="fill:#FFFFFF;" d="M346.724,963.076l-2.897,8.593h-0.957l-2.516-7.328l-2.529,7.328h-0.945l-2.897-8.593h0.933
			l2.479,7.389l2.566-7.389h0.847l2.529,7.426l2.516-7.426H346.724z"/>
		<path style="fill:#FFFFFF;" d="M364.435,963.076v8.593h-0.749l-5.524-6.972v6.972h-0.908v-8.593h0.749l5.536,6.973v-6.973H364.435
			z"/>
		<path style="fill:#FFFFFF;" d="M376.108,963.076h0.908v7.807h4.812v0.786h-5.72V963.076z"/>
		<path style="fill:#FFFFFF;" d="M391.279,967.373c0-2.504,1.915-4.37,4.517-4.37c2.577,0,4.505,1.853,4.505,4.37
			c0,2.516-1.927,4.369-4.505,4.369C393.194,971.742,391.279,969.877,391.279,967.373z M399.392,967.373
			c0-2.05-1.534-3.56-3.596-3.56c-2.075,0-3.621,1.51-3.621,3.56c0,2.049,1.546,3.559,3.621,3.559
			C397.858,970.932,399.392,969.422,399.392,967.373z"/>
		<path style="fill:#FFFFFF;" d="M416.478,969.374h-4.787l-1.031,2.295h-0.945l3.928-8.593h0.896l3.928,8.593h-0.957
			L416.478,969.374z M416.147,968.637l-2.062-4.615l-2.062,4.615H416.147z"/>
		<path style="fill:#FFFFFF;" d="M428.765,963.076h3.498c2.75,0,4.603,1.768,4.603,4.297s-1.854,4.296-4.603,4.296h-3.498V963.076z
			 M432.214,970.883c2.283,0,3.756-1.448,3.756-3.51s-1.473-3.511-3.756-3.511h-2.541v7.021H432.214z"/>
		<path style="fill:#FFFFFF;" d="M465.256,969.374h-4.787l-1.031,2.295h-0.945l3.928-8.593h0.896l3.928,8.593h-0.957
			L465.256,969.374z M464.925,968.637l-2.062-4.615l-2.062,4.615H464.925z"/>
		<path style="fill:#FFFFFF;" d="M477.543,963.076h0.908v7.807h4.812v0.786h-5.72V963.076z"/>
		<path style="fill:#FFFFFF;" d="M493.647,963.076h0.908v7.807h4.812v0.786h-5.72V963.076z"/>
		<path style="fill:#FFFFFF;" d="M522.749,963.862v3.376h4.443v0.786h-4.443v3.646h-0.909v-8.593h5.891v0.786H522.749z"/>
		<path style="fill:#FFFFFF;" d="M538.485,963.076h0.909v8.593h-0.909V963.076z"/>
		<path style="fill:#FFFFFF;" d="M551.067,963.076h0.909v7.807h4.811v0.786h-5.72V963.076z"/>
		<path style="fill:#FFFFFF;" d="M573.246,970.883v0.786h-6.076v-8.593h5.891v0.786h-4.983v3.056h4.443v0.774h-4.443v3.191H573.246z
			"/>
		<path style="fill:#FFFFFF;" d="M597.255,963.862v3.376h4.443v0.786h-4.443v3.646h-0.909v-8.593h5.891v0.786H597.255z"/>
		<path style="fill:#FFFFFF;" d="M612.119,967.373c0-2.504,1.915-4.37,4.517-4.37c2.577,0,4.505,1.853,4.505,4.37
			c0,2.516-1.927,4.369-4.505,4.369C614.034,971.742,612.119,969.877,612.119,967.373z M620.232,967.373
			c0-2.05-1.534-3.56-3.596-3.56c-2.075,0-3.622,1.51-3.622,3.56c0,2.049,1.547,3.559,3.622,3.559
			C618.698,970.932,620.232,969.422,620.232,967.373z"/>
		<path style="fill:#FFFFFF;" d="M637.919,971.669l-1.963-2.762c-0.222,0.024-0.442,0.037-0.688,0.037h-2.307v2.725h-0.909v-8.593
			h3.216c2.185,0,3.511,1.105,3.511,2.946c0,1.351-0.712,2.295-1.964,2.7l2.099,2.946H637.919z M637.871,966.022
			c0-1.375-0.909-2.161-2.627-2.161h-2.283v4.309h2.283C636.962,968.17,637.871,967.373,637.871,966.022z"/>
		<path style="fill:#FFFFFF;" d="M658.724,963.076v8.593h-0.871v-6.874l-3.376,5.782h-0.429l-3.376-5.745v6.837h-0.872v-8.593h0.749
			l3.732,6.371l3.695-6.371H658.724z"/>
		<path style="fill:#FFFFFF;" d="M675.787,969.374h-4.788l-1.031,2.295h-0.946l3.928-8.593h0.896l3.928,8.593h-0.957
			L675.787,969.374z M675.455,968.637l-2.062-4.615l-2.062,4.615H675.455z"/>
		<path style="fill:#FFFFFF;" d="M689.312,963.862h-3.02v-0.786h6.948v0.786h-3.02v7.807h-0.908V963.862z"/>
		<path style="fill:#FFFFFF;" d="M702.605,970.626l0.356-0.7c0.614,0.601,1.706,1.043,2.835,1.043c1.608,0,2.308-0.675,2.308-1.522
			c0-2.357-5.29-0.908-5.29-4.087c0-1.265,0.982-2.357,3.167-2.357c0.97,0,1.976,0.282,2.664,0.761l-0.307,0.724
			c-0.737-0.479-1.596-0.712-2.357-0.712c-1.571,0-2.271,0.7-2.271,1.559c0,2.357,5.29,0.933,5.29,4.063
			c0,1.265-1.006,2.344-3.204,2.344C704.508,971.742,703.243,971.288,702.605,970.626z"/>
	</g>
</g>
<g>
</g>
<g>
	<path style="fill:#131428;" d="M502.205,646.78c-32.858,0.952-62.303-7.707-89.873-23.074
		c-18.576-10.354-34.39-24.165-48.273-40.302c-14.991-17.424-25.824-37.187-33.284-58.756c-4.449-12.866-7.001-26.231-8.33-39.872
		c-0.985-10.111-1.164-20.244-0.461-30.243c1.244-17.701,4.679-35.068,11.519-51.646c5.433-13.168,11.864-25.727,20.474-37.108
		c1.336-1.766,1.064-3.304,0.051-5.092c-6.46-11.408-12.825-22.869-19.281-34.279c-7.238-12.791-14.548-25.54-21.809-38.318
		c-4.645-8.175-9.289-16.351-13.873-24.56c-2.29-4.101-2.234-4.169,2.271-5.071c15.662-3.138,31.58-4.835,47.17-8.379
		c0.999-0.227,1.788,0.042,2.553,0.707c10.987,9.552,24.049,15.385,37.404,20.61c21.288,8.328,43.396,13.504,65.969,16.871
		c10.993,1.64,22.01,2.696,33.121,3.316c6.899,0.385,13.794,0.803,20.668,0.562c30.108-1.058,59.451-5.906,87.135-18.485
		c12.47-5.666,24.224-12.479,34.519-21.601c1.928-1.708,3.706-1.991,6.364-1.587c10.962,1.666,22.001,2.817,33.008,4.195
		c10.479,1.312,20.946,2.727,31.434,3.965c2.294,0.271,1.903,1.364,1.186,2.632c-1.888,3.343-3.841,6.651-5.818,9.943
		c-15.056,25.081-30.122,50.157-45.19,75.231c-1.908,3.175-3.757,6.393-5.811,9.472c-1.218,1.826-1.11,3.023,0.31,4.841
		c12.086,15.477,21.382,32.509,27.399,51.219c3.972,12.352,6.565,24.988,7.793,37.978c0.969,10.244,0.958,20.483,0.457,30.647
		c-0.651,13.198-3.4,26.179-7.231,38.884c-6.737,22.343-17.406,42.682-32.087,60.732c-12.608,15.502-27.296,28.901-44.394,39.451
		c-17.727,10.937-36.618,19.066-57.058,23.426C527.37,645.831,514.398,647.414,502.205,646.78z"/>
	<path style="fill:#020B28;" d="M654.516,696.402c-4.274-9.1-8.86-18.096-12.367-27.491c-2.293-6.16-6.751-4.091-10.77-4.522
		c-3.955-0.423-4.21,2.852-5.321,5.273c-4.226,9.212-8.445,18.423-12.807,27.947c-1.806-1.646-1.606-3.308-1.526-4.874
		c0.144-3.012-0.232-6.072-2.213-8.237c-1.518-1.67-1.478-2.181,0.208-3.435c3.395-2.525,3.459-6.344,2.429-9.787
		c-1.023-3.411-3.683-5.529-7.558-6.168c-8.732-1.454-17.497-0.248-26.229-0.751c-3.459-0.2-4.298,1.358-4.242,4.506
		c0.144,8.509,0.04,17.017,0.048,25.534c0,5.137,0.008,5.137,5.265,5.137c0.663,0,1.334-0.064,1.989,0
		c2.517,0.28,3.092-0.983,3.172-3.292c0.304-9.635,0.367-9.627,10.043-9.483c5.449,0.08,7.206,1.973,6.983,7.534
		c-0.168,4.378,0.655,5.225,5.097,5.233c4.522,0.016,9.044-0.048,13.566,0.024c1.806,0.024,3.34-0.471,3.667-2.309
		c0.839-4.682,3.931-5.281,7.901-4.937c2.772,0.232,5.585,0.048,8.373,0.056c1.23,0,2.373,0.016,2.716,1.638
		c1.151,5.321,4.874,6.024,9.579,5.624C655.187,699.39,655.707,698.927,654.516,696.402z M599.494,679.601
		c-4.49,1.526-9.236,1.19-13.678,0.375c-2.589-0.479-0.895-3.899-1.214-5.968c-0.248-1.606,0.615-2.453,2.301-2.413
		c1.854,0.04,3.707,0.008,5.553,0.008c1.854,0.008,3.707-0.064,5.553,0.024c2.269,0.112,3.667,1.35,4.035,3.603
		C602.402,677.364,601.467,678.93,599.494,679.601z M637.731,685.928c-0.136,0-0.264,0-0.399,0.016
		c-8.317,0.927-8.684,0.479-5.76-7.11c0.687-1.798,1.43-3.571,2.581-6.415c1.909,4.554,3.34,8.061,4.857,11.529
		C639.64,685.393,639.113,685.888,637.731,685.928z"/>
	<path style="fill:#020B28;" d="M427.044,696.658c-3.971-8.501-8.397-16.865-11.497-25.686c-2.085-5.904-5.369-7.142-10.857-6.687
		c-2.876,0.24-4.354,0.959-5.561,3.795c-4.186,9.827-8.788,19.47-13.382,29.497c-1.933-1.478-1.726-3.148-1.63-4.69
		c0.2-3.148-0.064-6.272-2.317-8.565c-1.422-1.446-1.446-1.965,0.152-3.116c3.443-2.469,3.563-6.24,2.652-9.739
		c-0.871-3.34-3.411-5.625-7.023-6.288c-9.355-1.71-18.799-0.415-28.202-0.735c-1.909-0.064-2.013,1.326-2.013,2.732
		c0,9.843-0.016,19.678,0.016,29.521c0,1.007-0.168,2.085,1.158,2.676c4.442,1.973,8.381-0.352,8.397-5.033
		c0.016-7.59,0.016-7.59,7.598-7.59c8.748,0.008,9.563,0.687,9.931,9.276c0.112,2.557,1.063,3.571,3.595,3.523
		c4.921-0.088,9.843-0.048,14.756-0.008c1.622,0.008,3.044-0.383,3.419-2.077c1.134-5.049,4.65-5.593,8.964-5.161
		c2.501,0.248,5.049,0.112,7.574,0.032c1.566-0.056,2.788,0.583,2.98,2.013c0.783,5.968,5.089,5.281,9.244,5.217
		C427.276,699.534,428.211,699.151,427.044,696.658z M371.607,679.713c-4.378,1.358-8.988,1.055-13.302,0.304
		c-2.74-0.479-0.967-3.859-1.31-5.904c-0.256-1.526,0.447-2.541,2.197-2.509c1.981,0.024,3.963,0,5.944,0
		c1.726,0,3.443-0.048,5.161,0.016c2.261,0.088,3.707,1.262,4.115,3.507C374.842,677.444,373.756,679.049,371.607,679.713z
		 M410.171,685.912c-2.756-0.032-6.288,0.871-8.037-0.495c-1.55-1.198,0.967-4.33,1.822-6.567c0.687-1.798,1.422-3.579,2.389-6.008
		c2.613,3.859,3.435,7.638,5.025,11.065C412.009,685.273,411.609,685.928,410.171,685.912z"/>
	<path style="fill:#020B28;" d="M336.198,680.44c4.578-2.668,4.858-6.807,3.603-10.642c-1.222-3.723-5.121-5.089-8.724-5.225
		c-8.493-0.312-17.001-0.128-25.502-0.144c-2.173-0.008-2.141,1.526-2.141,3.036c0,9.563,0.072,19.134-0.048,28.698
		c-0.032,2.636,0.927,3.443,3.483,3.411c8.237-0.12,16.474,0.008,24.711-0.064c4.977-0.04,8.82-2.796,9.979-6.911
		C342.997,687.478,341.543,683.859,336.198,680.44z M317.855,670.773c3.132,0.28,6.312-0.471,9.435,0.655
		c1.933,0.695,3.483,1.558,3.164,3.835c-0.312,2.277-1.877,3.403-4.138,3.467c-1.854,0.056-3.707,0.016-5.561,0.016v0.024
		c-1.063,0-2.125-0.072-3.18,0.008c-2.788,0.216-4.746,0.04-4.69-3.811C312.949,671.116,314.771,670.501,317.855,670.773z
		 M331.356,689.571c-0.144,2.437-1.478,3.547-3.835,3.555c-1.989,0.008-3.971,0-5.952,0c0,0.008,0,0.016,0,0.016h-3.172
		c-5.529-0.008-6.128-0.735-5.377-6.144c0.208-1.526,0.775-2.581,2.397-2.573c4.33,0.016,8.684-0.511,12.967,0.727
		C330.749,685.832,331.492,687.334,331.356,689.571z"/>
	<path style="fill:#020B28;" d="M694.918,668.903c-4.834-4.562-10.834-5.009-16.921-5.313c-2.988-0.511-5.832,0.399-8.66,0.959
		c-7.087,1.382-12.839,7.51-13.67,14.197c-1.158,9.324,2.013,15.883,9.467,19.542c6.176,3.028,12.735,3.052,19.286,1.957
		c7.007-1.174,13.023-4.154,15.092-11.624C701.525,681.342,700.862,674.503,694.918,668.903z M677.43,693.997
		c-7.078-0.296-11.481-4.642-11.417-11.864c0.048-6.399,5.121-11.353,11.616-11.353c8.62-0.368,11.832,5.704,12.032,11.401
		C689.893,688.964,683.877,694.277,677.43,693.997z"/>
	<path style="fill:#020B28;" d="M446.171,663.599c4.977-0.137,9.471,0.742,13.74,2.753c1.605,0.756,2.922,1.833,3.865,3.328
		c0.876,1.39,1.576,3.127,0.911,4.513c-0.588,1.226-2.41,0.543-3.675,0.552c-3.058,0.023-6.092,0.701-8.259-2.924
		c-1.403-2.347-8.936-2.508-11.692-1.157c-1.477,0.724-2.562,1.975-2.312,3.362c0.307,1.705,1.742,2.841,3.666,3.135
		c5.081,0.775,10.167,1.531,15.221,2.456c6.628,1.212,9.026,4.392,8.719,11.048c-0.175,3.81-2.425,6.24-5.572,7.572
		c-9.028,3.82-18.212,3.796-27.25-0.014c-2.893-1.219-5.031-3.462-5.489-6.804c-0.093-0.676-0.583-1.519,0.364-2.117
		c1.689-1.067,9.684,0.287,11.039,1.909c3.003,3.595,11.159,4.388,14.904,1.45c2.388-1.874,1.867-4.53-1.341-5.688
		c-4.622-1.669-9.624-1.504-14.365-2.64c-3.458-0.829-7.118-1.443-9.07-4.967c-3.098-5.592-0.682-11.857,5.568-14.025
		C438.762,664.088,442.542,663.3,446.171,663.599z"/>
	<path style="fill:#020B28;" d="M520.661,681.957c-0.001-4.521,0.103-9.045-0.039-13.561c-0.09-2.865,0.907-4.083,3.9-4.043
		c8.906,0.119,17.816,0.101,26.723,0.009c2.718-0.028,3.796,0.963,3.801,3.734c0.005,2.972-1.51,3.544-4.023,3.507
		c-5.583-0.083-11.171,0.097-16.751-0.068c-2.804-0.083-3.301,1.214-3.285,3.616c0.016,2.343,0.379,3.754,3.238,3.662
		c5.313-0.17,10.637,0.04,15.952-0.077c2.395-0.053,3.282,0.771,3.276,3.214c-0.005,2.411-0.826,3.296-3.25,3.241
		c-5.315-0.121-10.641,0.118-15.952-0.084c-3.26-0.124-3.245,1.731-3.245,4.045c-0.001,2.315-0.01,4.153,3.247,4.044
		c5.843-0.196,11.7,0.031,17.548-0.085c2.423-0.048,3.245,0.83,3.25,3.241c0.005,2.442-0.883,3.238-3.276,3.214
		c-9.306-0.093-18.614-0.095-27.92,0c-2.425,0.025-3.294-0.842-3.231-3.25C520.75,691.533,520.662,686.744,520.661,681.957z"/>
	<path style="fill:#020B28;" d="M558.253,746.12c-3.052-9.02-6.272-17.976-9.403-26.972c-1.678-4.81-1.925-4.77-9.332-4.498
		c-4.25,0.16-2.405,3.204-2.964,5.161c-0.216,0.759-0.495,1.494-0.783,2.237c-2.876,7.39-5.808,14.756-8.573,22.194
		c-0.487,1.318-1.79,2.948,0.032,4.346c2.221,1.718,7.302,0.224,8.061-2.597c0.743-2.74,2.261-3.619,4.913-3.355
		c1.582,0.152,3.196,0.12,4.786,0.008c1.885-0.128,3.252,0.607,3.451,2.453c0.391,3.619,2.668,4.218,6.024,3.875
		C555.329,747.845,560.011,751.329,558.253,746.12z M544.367,736.061c-1.414,0.351-2.924,0.487-4.274-0.192
		c-1.007-0.511-0.855-1.422-0.495-2.405c0.895-2.453,1.662-4.953,2.708-8.141c1.782,3.028,2.117,5.816,2.924,8.437
		C545.494,734.607,545.574,735.758,544.367,736.061z"/>
	<path style="fill:#020B28;" d="M458.371,744.186c-2.804-8.261-6-16.402-8.613-24.719c-1.134-3.643-2.573-5.744-6.008-4.762
		c-5.337,0-5.329,0-6.248,4.466c-0.136,0.639-0.447,1.238-0.679,1.854c-3.004,7.909-5.984,15.835-9.036,23.728
		c-0.575,1.494-0.935,2.884,0.543,3.923c2.285,1.59,6.599,0.024,7.742-2.7c0.503-1.206,0.783-2.916,2.237-3.044
		c3.028-0.272,6.136-0.415,9.14-0.056c2.045,0.24,1.55,2.78,2.421,4.154c2.141,3.403,5.656,2.317,8.333,1.71
		C460.959,748.109,458.874,745.648,458.371,744.186z M441.976,736.269c-1.542-0.224-2.117-0.759-1.606-2.325
		c0.871-2.708,1.654-5.449,2.477-8.173c0.304-0.024,0.607-0.048,0.903-0.072c0.631,2.133,1.246,4.258,1.878,6.383
		C446.77,735.893,445.907,736.836,441.976,736.269z"/>
	<path style="fill:#020B28;" d="M478.995,713.935c1.982-0.022,3.95-0.125,5.86,0.703c2.151,0.933,4.299,5.059,3.501,7.135
		c-0.5,1.301-1.426,0.612-2.305,0.421c-2.443-0.532-4.835-1.277-7.415-1.137c-1.884,0.103-3.637,0.435-4.057,2.411
		c-0.46,2.162,1.481,2.922,3.028,3.605c1.926,0.851,4.022,1.33,5.919,2.232c5.378,2.56,7.682,6.716,6.674,11.706
		c-0.905,4.481-5.946,8.4-11.028,8.864c-3.809,0.347-7.328-0.727-10.892-1.69c-4.106-1.11-4.652-2.539-2.714-6.413
		c0.828-1.656,1.642-2.534,3.595-1.392c2.344,1.371,4.979,1.667,7.676,1.481c1.626-0.112,3.368-0.223,3.738-2.164
		c0.36-1.891-1.071-2.842-2.586-3.541c-2.156-0.995-4.353-1.906-6.484-2.951c-4.802-2.356-6.718-5.925-5.892-10.813
		c0.725-4.291,5.013-8.016,9.799-8.441C476.597,713.845,477.8,713.935,478.995,713.935z"/>
	<path style="fill:#020B28;" d="M510.808,713.91c1.599,0.164,3.45-0.24,5.279,0.492c2.111,0.845,4.297,4.828,3.679,6.959
		c-0.449,1.55-1.417,1.282-2.481,0.837c-2.639-1.103-5.4-1.199-8.209-1.104c-1.535,0.052-2.518,0.642-2.962,2.127
		c-0.498,1.664,0.527,2.465,1.779,3.05c2.757,1.288,5.535,2.532,8.321,3.755c4.271,1.874,5.529,5.231,5.297,9.688
		c-0.224,4.305-2.73,6.699-6.127,8.536c-6.325,3.42-12.408,1.161-18.355-1.118c-2.773-1.063-0.812-3.135-0.211-4.651
		c0.539-1.361,0.597-3.633,3.366-2.177c2.592,1.363,5.524,1.693,8.493,1.58c1.618-0.062,2.936-0.392,3.345-2.147
		c0.442-1.897-0.578-2.988-2.225-3.631c-1.844-0.719-3.736-1.325-5.544-2.122c-5.623-2.476-8.365-6.686-7.44-11.28
		c1.007-5,6.021-8.749,11.763-8.793C509.241,713.906,509.906,713.91,510.808,713.91z"/>
	<path style="fill:#020B28;" d="M485.522,681.961c0-4.791,0.156-9.589-0.047-14.372c-0.174-4.101,2.655-3.142,4.862-3.167
		c2.252-0.026,4.931-0.831,4.816,3.223c-0.204,7.181,0.034,14.374-0.091,21.558c-0.051,2.928,1.038,4.061,3.974,3.978
		c5.053-0.143,10.115,0.046,15.17-0.068c2.358-0.053,3.329,0.699,3.311,3.183c-0.017,2.382-0.772,3.301-3.226,3.271
		c-8.516-0.103-17.035-0.099-25.552-0.002c-2.404,0.027-3.32-0.797-3.254-3.232C485.613,691.546,485.522,686.752,485.522,681.961z"
		/>
	<path style="fill:#020B28;" d="M479.92,682.362c0,4.653-0.161,9.312,0.048,13.955c0.184,4.078-2.613,3.185-4.835,3.185
		c-2.223,0.001-4.918,0.888-4.842-3.185c0.178-9.568,0.178-19.143,0-28.711c-0.076-4.074,2.622-3.183,4.844-3.184
		c2.223-0.001,5.009-0.891,4.835,3.186C479.76,672.518,479.92,677.443,479.92,682.362z"/>
	<path style="fill:#020B28;" d="M558.993,681.881c0.001-4.652,0.093-9.308-0.036-13.956c-0.068-2.455,0.576-3.561,3.311-3.592
		c6.305-0.072,6.305-0.211,6.306,6.147c0.001,8.375-0.217,16.757,0.09,25.12c0.154,4.183-2.147,3.914-4.962,3.986
		c-3.031,0.078-5.102-0.152-4.791-4.152C559.262,690.941,558.992,686.4,558.993,681.881z"/>
	<path style="fill:#020B28;" d="M564.577,733.545c0-3.315,0.187-6.643-0.061-9.939c-0.188-2.497,0.354-3.805,3.077-3.299
		c2.324,0.431,5.945-1.636,5.817,3.399c-0.186,7.287-0.121,14.584-0.006,21.874c0.039,2.496-0.658,3.653-3.352,3.514
		c-2.638-0.136-5.307-0.018-5.416-3.617c-0.12-3.974-0.027-7.954-0.027-11.931C564.597,733.545,564.587,733.545,564.577,733.545z"/>
	<path style="fill:#020B28;" d="M639.098,661.948c-2.173,0.304-3.975-0.675-5.892-1.141c-2.45-0.596-4.957-2.084-7.247,0.668
		c-0.747,0.898-2.449,0.923-3.294,0.046c-0.842-0.875,0.288-1.921,0.701-2.828c1.726-3.793,5.169-3.449,8.239-2.877
		c4.119,0.768,8.015,2.48,12.236,0.024c1.526-0.888,2.471,0.63,2.028,2.228C644.898,661.57,642.179,662.247,639.098,661.948z"/>
	<path style="fill:#020B28;" d="M578.098,710.717c-3.366,4.257-6.378,7.023-11.393,6.421c-2.14-0.257-2.11-1.199-1.228-2.519
		c1.475-2.208,3.092-4.25,6.266-3.934C573.552,710.864,575.394,710.717,578.098,710.717z"/>
	<path style="fill:#C7FE00;" d="M627.87,365.766c50.002,62.05,49.447,159.846-17.038,221.451
		c-66.773,61.872-167.567,57.836-229.492-9.189c-59.412-64.304-53.503-156.968-7.859-212.174c4.092,8.916,8.08,17.685,12.157,26.412
		c0.733,1.569-0.168,2.528-0.853,3.617c-10.77,17.133-17.393,35.795-19.677,55.847c-3.396,29.809,2.346,57.89,17.43,83.885
		c17.301,29.815,42.471,50.143,74.984,61.465c4.789,1.667,4.71,1.668,5.844-3.394c2.475-11.048,4.055-22.24,4.332-33.526
		c0.315-12.851-2.576-25.191-6.774-37.356c-6.648-19.266-17.617-35.885-30.351-51.478c-1.969-2.411-1.912-4.077-0.515-6.618
		c20.082-36.507,40.071-73.066,60.083-109.612c3.363-6.142,6.73-12.282,10.486-19.137c4.016,7.3,7.7,13.972,11.361,20.656
		c19.826,36.198,39.619,72.416,59.533,108.566c1.345,2.442,0.991,3.803-0.703,5.861c-16.814,20.437-29.834,42.823-35.315,69.101
		c-3.414,16.368-1.567,32.53,1.472,48.641c1.964,10.414,2.207,10.434,12.298,6.268c47.671-19.68,76.719-54.913,85.95-105.542
		c6.016-32.995-0.762-64.144-18.3-92.795c-1.44-2.353-1.527-4.113-0.396-6.48C620.346,382.244,623.991,374.17,627.87,365.766z"/>
	<path style="fill:#C7FE00;" d="M436.511,438.283c-6.008-27.235-13.788-53.173-23.832-78.381
		c-10.017-25.139-21.564-49.592-34.63-74.3c81.903,41.795,163.144,41.802,245.148,0.063c-25.456,48.634-46.837,98.331-58.323,153.12
		c-3.157-5.744-5.78-10.511-8.397-15.28c-17.744-32.325-35.473-64.657-53.245-96.967c-2.32-4.218-2.76-4.215-5.143,0.108
		c-11.971,21.719-23.886,43.469-35.818,65.21c-7.919,14.43-15.829,28.865-23.756,43.29
		C438.038,436.018,437.447,436.827,436.511,438.283z"/>
	<path style="fill:#C7FE00;" d="M331.834,279.603c10.376-1.06,20.24-2.021,30.09-3.112c1.92-0.213,2.552,0.93,3.329,2.198
		c12.349,20.161,23.334,41.03,32.595,62.793c13.565,31.878,24.668,64.555,32.278,98.396c1.041,4.629,1.121,8.612-1.651,12.757
		c-2.922,4.37-5.188,9.179-8.167,14.567C402.006,398.963,370.806,337.706,331.834,279.603z"/>
	<path style="fill:#C7FE00;" d="M669.544,279.573c-39.098,58.195-70.15,119.431-88.532,187.6
		c-3.862-7.014-7.417-13.331-10.804-19.736c-0.687-1.299,0.005-2.877,0.323-4.29c11.837-52.567,30.301-102.626,56.724-149.661
		c2.791-4.969,5.783-9.826,8.708-14.719c0.827-1.383,1.646-2.487,3.729-2.25C649.431,277.625,659.193,278.534,669.544,279.573z"/>
	<path style="fill:#C7FE00;" d="M421.569,472.39c7.087,6.758,12.841,13.456,17.496,21.01c9.802,15.908,17.456,32.748,20.536,51.325
		c2.372,14.306,1.641,28.545-1.928,42.637c-0.513,2.026-1.075,2.681-3.155,1.721c-7.96-3.674-15.761-7.63-22.981-12.632
		c-1.944-1.347-3.408-2.66-2.942-5.787c4.605-30.902,1.152-61.355-5.602-91.587C422.565,477.162,422.174,475.239,421.569,472.39z"/>
	<path style="fill:#C7FE00;" d="M579.684,473.117c-5.066,21.772-8.678,43.334-9.048,65.326c-0.17,10.099,0.144,20.197,1.87,30.177
		c0.629,3.638-0.102,6.255-3.395,8.387c-6.712,4.347-13.794,7.951-20.928,11.52c-3.254,1.628-4.17,0.726-4.888-2.464
		c-4.542-20.185-3.896-40.097,3.11-59.629c6.729-18.759,15.733-36.233,29.865-50.649
		C577.182,474.855,577.915,473.675,579.684,473.117z"/>
	<path style="fill:#131428;" d="M500.181,420.911c25.99,0.005,46.724,21.05,46.717,47.419c-0.007,25.431-21.203,46.341-46.983,46.35
		c-25.788,0.009-46.657-20.972-46.779-47.031C453.015,442.076,474.324,420.906,500.181,420.911z"/>
	<path style="fill:#C7FE00;" d="M500.369,484.006c-11.058,0-11.058,0-14.417-10.021c-3.449-10.289-3.459-10.304,5.271-16.568
		c2.897-2.078,5.86-5.629,8.801-5.638c2.935-0.009,5.926,3.513,8.807,5.605c2.789,2.025,6.847,3.72,7.8,6.449
		c0.914,2.618-1.378,6.399-2.381,9.631c-1.059,3.411-1.318,7.898-3.653,9.863C508.031,485.487,503.442,483.729,500.369,484.006z"/>
	<path style="fill:#C7FE00;" d="M532.166,443.461c-0.278,1.694-0.861,3.404-0.779,5.081c0.287,5.891-2.966,8.256-8.228,9.357
		c-2.139,0.448-3.699,0.49-5.458-0.888c-3.638-2.851-7.317-5.681-11.19-8.192c-2.189-1.419-3.127-3.022-2.748-5.531
		c0.368-2.436-1.246-5.742,0.763-7.191c3.489-2.517,7.677-4.091,11.659-5.867c0.609-0.272,1.724,0.405,2.532,0.794
		c4.708,2.265,8.764,5.383,12.234,9.303C531.793,441.28,532.392,442.175,532.166,443.461z"/>
	<path style="fill:#C7FE00;" d="M496.05,441.629c0.599,3.664-0.524,6.263-3.879,8.216c-3.419,1.991-6.527,4.54-9.662,6.985
		c-1.958,1.526-3.83,2.077-6.154,0.855c-2.152-1.132-5.734-0.584-6.495-3.027c-1.242-3.987-2.118-8.403-1.7-12.49
		c0.326-3.189,4.07-4.974,6.608-7.069c6.757-5.58,13.968-5.403,20.371,0.542C496.968,437.339,495.489,439.711,496.05,441.629z"/>
	<path style="fill:#C7FE00;" d="M523.459,493.645c0.063,0.012-0.654,0.053-1.169-0.25c-3.533-2.074-5.746-8.545-4.408-12.596
		c1.285-3.89,2.695-7.749,3.731-11.706c0.664-2.534,2.008-3.9,4.526-4.224c2.333-0.301,4.759-2.742,6.721-1.469
		c2.921,1.895,5.226,4.789,7.632,7.406c1.355,1.473,0.357,3.384,0.065,4.948c-0.625,3.351-1.628,6.628-3.197,9.726
		C533.731,492.65,532.261,493.624,523.459,493.645z"/>
	<path style="fill:#C7FE00;" d="M475.556,493.622c-8.83-0.267-13.061-4.454-15.625-15.463c-1.352-5.806,1.54-12.013,6.846-14.694
		c2.012-1.017,10.402,2.105,11.126,4.257c1.772,5.265,3.525,10.54,5.109,15.863C483.924,486.653,478.543,493.712,475.556,493.622z"
		/>
	<path style="fill:#C7FD00;" d="M499.946,489.755c1.19,0,2.44,0.24,3.56-0.04c6.313-1.579,9.006,2.791,11.781,7.034
		c0.346,0.529,0.625,1.228,0.615,1.842c-0.066,3.981-5.021,9.437-9.005,10.033c-5.308,0.795-10.592,0.723-15.844-0.421
		c-4.887-1.064-7.503-8.772-5.371-13.109C488.959,488.432,494.575,489.843,499.946,489.755z"/>
	<path style="fill:#C3F901;" d="M489.723,427.907c6.862-2.119,13.617-2,20.455-0.05C503.33,433.726,496.573,433.881,489.723,427.907
		z"/>
	<path style="fill:#C0F501;" d="M541.034,464.717c-6.857-4.294-7.837-7.658-4.653-16.232
		C539.288,453.68,540.937,458.852,541.034,464.717z"/>
	<path style="fill:#C4FA01;" d="M459.016,464.684c-0.014-6.019,1.919-10.956,4.318-16.23
		C467.166,456.499,466.46,459.104,459.016,464.684z"/>
	<path style="fill:#B8EB03;" d="M518.142,505.167c2.681-7.119,2.753-7.17,10.211-7.481
		C525.469,500.944,522.168,502.817,518.142,505.167z"/>
	<path style="fill:#B8EB03;" d="M471.573,497.64c7.577,0.414,8.17,0.858,9.785,7.048
		C477.806,502.912,474.696,500.939,471.573,497.64z"/>
</g>
</svg>
